<svg width="370" height="150" viewBox="0 0 532 157" fill="none" xmlns="http://www.w3.org/2000/svg">
<path d="M61 0H517L489 77.9968H32L61 0Z" fill="#FFF84E"/>
<path d="M31.8103 78.5H532L501.287 157H0L31.8103 78.5Z" fill="#020202"/>
<path d="M72.6 61.7577C67.8333 61.7577 64.5333 60.7243 62.7 58.6577C61.4333 57.191 60.8 55.141 60.8 52.5077C60.8 51.3743 60.9167 50.1577 61.15 48.8577L63.2 37.3577C64.7 28.9243 70.1167 24.7077 79.45 24.7077C83.3167 24.7077 86.25 25.541 88.25 27.2077C90.25 28.841 91.25 31.091 91.25 33.9577C91.25 35.291 91.05 36.6243 90.65 37.9577C90.2833 39.2577 89.9167 40.2243 89.55 40.8577L89 41.8577H80.15C81.25 40.591 81.8 38.791 81.8 36.4577C81.8 35.2243 81.4833 34.2577 80.85 33.5577C80.2167 32.8243 79.2833 32.4577 78.05 32.4577C74.6833 32.4577 72.6833 34.3243 72.05 38.0577L70.3 48.1577C70.1333 49.0243 70.05 49.8743 70.05 50.7077C70.05 52.9077 71.3667 54.0077 74 54.0077C77.1667 54.0077 79.0667 52.2243 79.7 48.6577H88.7L88.45 50.1077C87.1167 57.8743 81.8333 61.7577 72.6 61.7577ZM107.423 36.3077C111.023 36.3077 113.74 37.091 115.573 38.6577C117.006 39.891 117.723 41.6077 117.723 43.8077C117.723 44.541 117.64 45.341 117.473 46.2077L116.423 52.0577C115.79 55.591 114.306 58.091 111.973 59.5577C109.673 61.0243 106.59 61.7577 102.723 61.7577C98.8564 61.7577 96.023 61.0243 94.223 59.5577C92.8897 58.4577 92.223 56.8077 92.223 54.6077C92.223 53.841 92.3064 52.991 92.473 52.0577L93.523 46.2077C94.6897 39.6077 99.323 36.3077 107.423 36.3077ZM108.773 47.2077C108.84 46.8743 108.873 46.4577 108.873 45.9577C108.873 45.4243 108.656 44.841 108.223 44.2077C107.79 43.5743 107.023 43.2577 105.923 43.2577C104.856 43.2577 103.956 43.6243 103.223 44.3577C102.49 45.0577 102.023 46.0077 101.823 47.2077L101.173 50.9577C101.106 51.291 101.073 51.7243 101.073 52.2577C101.073 52.7577 101.29 53.3077 101.723 53.9077C102.156 54.5077 102.906 54.8077 103.973 54.8077C105.073 54.8077 105.99 54.441 106.723 53.7077C107.456 52.941 107.923 52.0243 108.123 50.9577L108.773 47.2077ZM162.096 54.6577C162.862 54.6577 163.546 54.491 164.146 54.1577L163.896 59.8077C162.329 61.1077 160.546 61.7577 158.546 61.7577C154.012 61.7577 151.746 59.8577 151.746 56.0577C151.746 55.391 151.812 54.6743 151.946 53.9077L152.996 47.7577C153.096 47.1577 153.146 46.5577 153.146 45.9577C153.146 44.3577 152.262 43.5577 150.496 43.5577C148.762 43.5577 147.396 44.241 146.396 45.6077L143.696 61.0577H135.196L137.546 47.7577C137.646 47.1577 137.696 46.5577 137.696 45.9577C137.696 44.3577 136.796 43.5577 134.996 43.5577C133.562 43.5577 132.329 44.1077 131.296 45.2077L128.496 61.0577H119.996L124.246 37.0077H132.146L131.596 40.0077C133.596 37.541 136.129 36.3077 139.196 36.3077C143.529 36.3077 145.996 37.741 146.596 40.6077C148.596 37.741 151.262 36.3077 154.596 36.3077C157.962 36.3077 160.146 37.0577 161.146 38.5577C161.812 39.591 162.146 40.7243 162.146 41.9577C162.146 43.191 162.062 44.3077 161.896 45.3077L160.646 52.7577C160.612 52.9577 160.596 53.141 160.596 53.3077C160.596 54.2077 161.096 54.6577 162.096 54.6577ZM184.432 36.3577C187.832 36.3577 190.182 37.2577 191.482 39.0577C192.416 40.291 192.882 41.8577 192.882 43.7577C192.882 44.5243 192.799 45.341 192.632 46.2077L191.632 52.0577C191.066 55.2243 189.849 57.641 187.982 59.3077C186.116 60.941 183.782 61.7577 180.982 61.7577C178.182 61.7577 176.232 61.0077 175.132 59.5077L172.432 74.9577H163.932L170.632 37.0077H178.332L178.082 38.3577C179.649 37.0243 181.766 36.3577 184.432 36.3577ZM179.232 54.5577C180.166 54.5577 181.032 54.2577 181.832 53.6577C182.632 53.0577 183.132 52.1577 183.332 50.9577L183.982 47.2077C184.049 46.8743 184.082 46.4577 184.082 45.9577C184.082 45.4577 183.866 44.9243 183.432 44.3577C182.999 43.791 182.249 43.5077 181.182 43.5077C179.449 43.5077 178.316 43.9243 177.782 44.7577L176.282 53.1577C176.749 54.091 177.732 54.5577 179.232 54.5577ZM205.191 53.3577C205.191 54.2243 205.624 54.6577 206.491 54.6577C207.391 54.6577 208.141 54.491 208.741 54.1577L208.491 59.8077C206.891 61.1077 205.091 61.7577 203.091 61.7577C200.058 61.7577 198.091 61.0577 197.191 59.6577C196.624 58.7577 196.341 57.7743 196.341 56.7077C196.341 55.641 196.408 54.7077 196.541 53.9077L201.991 23.1077H210.491L205.241 52.7577C205.208 52.9577 205.191 53.1577 205.191 53.3577ZM221.958 61.7577C215.024 61.7577 211.558 59.3577 211.558 54.5577C211.558 53.891 211.624 53.1743 211.758 52.4077L212.808 46.2077C213.374 43.0077 214.841 40.5577 217.208 38.8577C219.608 37.1243 222.774 36.2577 226.708 36.2577C233.408 36.2577 236.758 38.791 236.758 43.8577C236.758 44.591 236.691 45.391 236.558 46.2577L235.958 49.8077H220.708L220.508 50.9577C220.441 51.3577 220.408 51.7243 220.408 52.0577C220.408 53.891 221.491 54.8077 223.658 54.8077C224.458 54.8077 225.141 54.5577 225.708 54.0577C226.274 53.5577 226.608 52.9743 226.708 52.3077L235.008 52.4077C233.908 58.641 229.558 61.7577 221.958 61.7577ZM227.958 46.7577C228.091 46.191 228.158 45.6743 228.158 45.2077C228.158 44.7077 227.941 44.2077 227.508 43.7077C227.074 43.2077 226.374 42.9577 225.408 42.9577C224.474 42.9577 223.608 43.2743 222.808 43.9077C222.041 44.541 221.508 45.491 221.208 46.7577H227.958ZM250.146 61.7577C246.279 61.7577 243.496 60.891 241.796 59.1577C240.529 57.891 239.896 56.191 239.896 54.0577C239.896 53.3577 239.962 52.6077 240.096 51.8077L243.496 32.4577L252.646 28.6577L251.196 37.0077H264.996L263.746 44.0577H249.946L248.946 49.7077C248.812 50.341 248.746 50.9077 248.746 51.4077C248.746 53.5077 249.746 54.5577 251.746 54.5577C252.812 54.5577 253.696 54.1077 254.396 53.2077C255.129 52.3077 255.629 51.1077 255.896 49.6077H264.196C262.796 57.7077 258.112 61.7577 250.146 61.7577ZM276.987 61.7577C270.054 61.7577 266.587 59.3577 266.587 54.5577C266.587 53.891 266.654 53.1743 266.787 52.4077L267.837 46.2077C268.404 43.0077 269.87 40.5577 272.237 38.8577C274.637 37.1243 277.804 36.2577 281.737 36.2577C288.437 36.2577 291.787 38.791 291.787 43.8577C291.787 44.591 291.72 45.391 291.587 46.2577L290.987 49.8077H275.737L275.537 50.9577C275.47 51.3577 275.437 51.7243 275.437 52.0577C275.437 53.891 276.52 54.8077 278.687 54.8077C279.487 54.8077 280.17 54.5577 280.737 54.0577C281.304 53.5577 281.637 52.9743 281.737 52.3077L290.037 52.4077C288.937 58.641 284.587 61.7577 276.987 61.7577ZM282.987 46.7577C283.12 46.191 283.187 45.6743 283.187 45.2077C283.187 44.7077 282.97 44.2077 282.537 43.7077C282.104 43.2077 281.404 42.9577 280.437 42.9577C279.504 42.9577 278.637 43.2743 277.837 43.9077C277.07 44.541 276.537 45.491 276.237 46.7577H282.987ZM326.687 25.0577C331.053 25.0577 334.17 26.1577 336.037 28.3577C337.403 30.0243 338.087 32.1077 338.087 34.6077C338.087 35.5077 338.003 36.4577 337.837 37.4577L335.887 48.6077C335.22 52.3743 333.587 55.391 330.987 57.6577C328.387 59.9243 325.02 61.0577 320.887 61.0577H306.337L312.687 25.0577H326.687ZM323.537 32.8577H320.287L316.737 53.2577H321.487C323.053 53.2577 324.27 52.841 325.137 52.0077C326.037 51.141 326.653 49.741 326.987 47.8077L328.437 39.6077C328.57 38.8743 328.637 38.2077 328.637 37.6077C328.637 34.441 326.937 32.8577 323.537 32.8577ZM350.484 54.6577C351.251 54.6577 351.934 54.491 352.534 54.1577L352.284 59.8077C350.717 61.1077 348.934 61.7577 346.934 61.7577C343.901 61.7577 341.934 61.0577 341.034 59.6577C340.434 58.7243 340.134 57.741 340.134 56.7077C340.134 55.641 340.201 54.7077 340.334 53.9077L343.334 37.0077H351.834L349.034 52.7577C349.001 52.9577 348.984 53.141 348.984 53.3077C348.984 54.2077 349.484 54.6577 350.484 54.6577ZM344.334 28.8577C344.334 26.7243 344.801 25.1743 345.734 24.2077C346.701 23.2077 348.184 22.7077 350.184 22.7077C352.984 22.7077 354.384 23.941 354.384 26.4077C354.384 28.5077 353.901 30.041 352.934 31.0077C352.001 31.9743 350.517 32.4577 348.484 32.4577C345.717 32.4577 344.334 31.2577 344.334 28.8577ZM377.608 61.8577C376.874 66.091 375.191 69.441 372.558 71.9077C369.958 74.3743 366.974 75.6077 363.608 75.6077C360.241 75.6077 357.808 74.991 356.308 73.7577C354.841 72.5243 354.108 70.9077 354.108 68.9077C354.108 65.9743 355.974 63.4243 359.708 61.2577C356.874 60.3577 355.458 58.2077 355.458 54.8077C355.458 53.9743 355.541 53.0577 355.708 52.0577L356.708 46.2077C357.241 43.2077 358.474 40.8243 360.408 39.0577C362.341 37.2577 364.841 36.3577 367.908 36.3577C371.008 36.3577 373.124 37.1077 374.258 38.6077L374.558 37.0077H382.008L377.608 61.8577ZM364.408 50.9577C364.341 51.2577 364.308 51.6743 364.308 52.2077C364.308 52.741 364.558 53.2743 365.058 53.8077C365.558 54.3077 366.391 54.5577 367.558 54.5577C368.758 54.5577 369.791 54.091 370.658 53.1577L372.158 44.7577C371.691 43.9243 370.808 43.5077 369.508 43.5077C368.208 43.5077 367.191 43.841 366.458 44.5077C365.724 45.1743 365.258 46.0743 365.058 47.2077L364.408 50.9577ZM364.758 68.4577C366.924 68.4577 368.341 66.491 369.008 62.5577L369.508 59.6577C364.874 61.8243 362.558 64.0077 362.558 66.2077C362.558 66.8743 362.741 67.4077 363.108 67.8077C363.508 68.241 364.058 68.4577 364.758 68.4577ZM393.99 54.6577C394.757 54.6577 395.44 54.491 396.04 54.1577L395.79 59.8077C394.223 61.1077 392.44 61.7577 390.44 61.7577C387.407 61.7577 385.44 61.0577 384.54 59.6577C383.94 58.7243 383.64 57.741 383.64 56.7077C383.64 55.641 383.707 54.7077 383.84 53.9077L386.84 37.0077H395.34L392.54 52.7577C392.507 52.9577 392.49 53.141 392.49 53.3077C392.49 54.2077 392.99 54.6577 393.99 54.6577ZM387.84 28.8577C387.84 26.7243 388.307 25.1743 389.24 24.2077C390.207 23.2077 391.69 22.7077 393.69 22.7077C396.49 22.7077 397.89 23.941 397.89 26.4077C397.89 28.5077 397.407 30.041 396.44 31.0077C395.507 31.9743 394.023 32.4577 391.99 32.4577C389.223 32.4577 387.84 31.2577 387.84 28.8577ZM409.814 61.7577C405.947 61.7577 403.164 60.891 401.464 59.1577C400.197 57.891 399.564 56.191 399.564 54.0577C399.564 53.3577 399.63 52.6077 399.764 51.8077L403.164 32.4577L412.314 28.6577L410.864 37.0077H424.664L423.414 44.0577H409.614L408.614 49.7077C408.48 50.341 408.414 50.9077 408.414 51.4077C408.414 53.5077 409.414 54.5577 411.414 54.5577C412.48 54.5577 413.364 54.1077 414.064 53.2077C414.797 52.3077 415.297 51.1077 415.564 49.6077H423.864C422.464 57.7077 417.78 61.7577 409.814 61.7577ZM450.005 53.3577C450.005 54.2243 450.438 54.6577 451.305 54.6577C452.205 54.6577 452.955 54.491 453.555 54.1577L453.305 59.8077C451.705 61.1077 449.905 61.7577 447.905 61.7577C444.238 61.7577 442.205 60.4243 441.805 57.7577C440.138 60.4243 437.688 61.7577 434.455 61.7577C428.988 61.7577 426.255 59.4077 426.255 54.7077C426.255 53.9077 426.338 53.0243 426.505 52.0577L427.555 46.2077C428.088 43.2077 429.305 40.8243 431.205 39.0577C433.138 37.2577 435.638 36.3577 438.705 36.3577C441.805 36.3577 443.905 37.0743 445.005 38.5077L445.255 37.0077H452.855L450.055 52.7577C450.022 52.9577 450.005 53.1577 450.005 53.3577ZM435.205 50.9577C435.138 51.2577 435.105 51.6743 435.105 52.2077C435.105 52.741 435.355 53.2743 435.855 53.8077C436.355 54.3077 437.188 54.5577 438.355 54.5577C439.555 54.5577 440.588 54.091 441.455 53.1577L442.955 44.7577C442.588 43.9243 441.722 43.5077 440.355 43.5077C437.788 43.5077 436.288 44.741 435.855 47.2077L435.205 50.9577ZM465.933 53.3577C465.933 54.2243 466.367 54.6577 467.233 54.6577C468.133 54.6577 468.883 54.491 469.483 54.1577L469.233 59.8077C467.633 61.1077 465.833 61.7577 463.833 61.7577C460.8 61.7577 458.833 61.0577 457.933 59.6577C457.367 58.7577 457.083 57.7743 457.083 56.7077C457.083 55.641 457.15 54.7077 457.283 53.9077L462.733 23.1077H471.233L465.983 52.7577C465.95 52.9577 465.933 53.1577 465.933 53.3577Z" fill="black"/>
<path d="M76.85 123.108H70.9L68.95 134.058H59.95L66.3 98.0577H81.55C85.3167 98.0577 88 98.9243 89.6 100.658C90.7667 101.991 91.35 103.691 91.35 105.758C91.35 106.458 91.2833 107.191 91.15 107.958L90.15 113.608C89.65 116.374 88.1833 118.658 85.75 120.458C83.3167 122.224 80.35 123.108 76.85 123.108ZM78.4 105.858H73.9L72.25 115.308H76.7C79.4333 115.308 81.0167 114.091 81.45 111.658L81.8 109.608C81.8667 109.308 81.9 108.908 81.9 108.408C81.9 107.908 81.65 107.358 81.15 106.758C80.65 106.158 79.7333 105.858 78.4 105.858ZM116.235 115.108C116.235 116.241 116.035 117.341 115.635 118.408C115.268 119.474 114.901 120.258 114.535 120.758L113.985 121.458H106.435C107.268 120.691 107.685 119.741 107.685 118.608C107.685 118.008 107.485 117.524 107.085 117.158C106.718 116.758 106.201 116.558 105.535 116.558C104.401 116.558 103.418 117.124 102.585 118.258L99.7848 134.058H91.2848L95.5348 110.008H103.435L102.835 113.358C104.735 110.658 107.035 109.308 109.735 109.308C111.901 109.308 113.518 109.824 114.585 110.858C115.685 111.891 116.235 113.308 116.235 115.108ZM127.768 134.758C120.835 134.758 117.368 132.358 117.368 127.558C117.368 126.891 117.435 126.174 117.568 125.408L118.618 119.208C119.185 116.008 120.652 113.558 123.018 111.858C125.418 110.124 128.585 109.258 132.518 109.258C139.218 109.258 142.568 111.791 142.568 116.858C142.568 117.591 142.502 118.391 142.368 119.258L141.768 122.808H126.518L126.318 123.958C126.252 124.358 126.218 124.724 126.218 125.058C126.218 126.891 127.302 127.808 129.468 127.808C130.268 127.808 130.952 127.558 131.518 127.058C132.085 126.558 132.418 125.974 132.518 125.308L140.818 125.408C139.718 131.641 135.368 134.758 127.768 134.758ZM133.768 119.758C133.902 119.191 133.968 118.674 133.968 118.208C133.968 117.708 133.752 117.208 133.318 116.708C132.885 116.208 132.185 115.958 131.218 115.958C130.285 115.958 129.418 116.274 128.618 116.908C127.852 117.541 127.318 118.491 127.018 119.758H133.768ZM170.256 115.208C170.256 116.308 169.923 117.324 169.256 118.258H161.056C161.323 118.058 161.456 117.724 161.456 117.258C161.456 116.791 161.19 116.424 160.656 116.158C160.123 115.858 159.44 115.708 158.606 115.708C156.106 115.708 154.856 116.474 154.856 118.008C154.856 118.608 155.323 119.041 156.256 119.308C157.19 119.574 158.323 119.791 159.656 119.958C160.99 120.124 162.323 120.374 163.656 120.708C164.99 121.008 166.123 121.624 167.056 122.558C167.99 123.491 168.456 124.741 168.456 126.308C168.456 129.074 167.34 131.174 165.106 132.608C162.906 134.041 159.69 134.758 155.456 134.758C151.223 134.758 148.256 134.074 146.556 132.708C145.223 131.641 144.556 130.174 144.556 128.308C144.556 127.774 144.606 127.224 144.706 126.658L153.056 126.558C152.99 127.024 153.256 127.441 153.856 127.808C154.49 128.141 155.406 128.308 156.606 128.308C157.806 128.308 158.673 128.191 159.206 127.958C159.74 127.691 160.006 127.208 160.006 126.508C160.006 126.041 159.54 125.724 158.606 125.558C157.673 125.358 156.523 125.191 155.156 125.058C153.823 124.924 152.473 124.708 151.106 124.408C149.773 124.108 148.64 123.474 147.706 122.508C146.773 121.541 146.306 120.274 146.306 118.708C146.306 115.674 147.473 113.341 149.806 111.708C152.173 110.074 155.573 109.258 160.006 109.258C166.84 109.258 170.256 111.241 170.256 115.208ZM182.798 134.758C175.864 134.758 172.398 132.358 172.398 127.558C172.398 126.891 172.464 126.174 172.598 125.408L173.648 119.208C174.214 116.008 175.681 113.558 178.048 111.858C180.448 110.124 183.614 109.258 187.548 109.258C194.248 109.258 197.598 111.791 197.598 116.858C197.598 117.591 197.531 118.391 197.398 119.258L196.798 122.808H181.548L181.348 123.958C181.281 124.358 181.248 124.724 181.248 125.058C181.248 126.891 182.331 127.808 184.498 127.808C185.298 127.808 185.981 127.558 186.548 127.058C187.114 126.558 187.448 125.974 187.548 125.308L195.848 125.408C194.748 131.641 190.398 134.758 182.798 134.758ZM188.798 119.758C188.931 119.191 188.998 118.674 188.998 118.208C188.998 117.708 188.781 117.208 188.348 116.708C187.914 116.208 187.214 115.958 186.248 115.958C185.314 115.958 184.448 116.274 183.648 116.908C182.881 117.541 182.348 118.491 182.048 119.758H188.798ZM216.386 118.708C216.386 117.274 215.686 116.558 214.286 116.558C212.919 116.558 211.786 117.074 210.886 118.108L208.086 134.058H199.586L203.836 110.008H211.736L211.186 112.958C213.152 110.524 215.636 109.308 218.636 109.308C221.636 109.308 223.586 110.041 224.486 111.508C225.052 112.441 225.336 113.508 225.336 114.708C225.336 115.908 225.252 117.024 225.086 118.058L223.736 125.758C223.702 125.958 223.686 126.141 223.686 126.308C223.686 127.208 224.186 127.658 225.186 127.658C225.952 127.658 226.636 127.491 227.236 127.158L226.986 132.808C225.419 134.108 223.636 134.758 221.636 134.758C217.102 134.758 214.836 132.858 214.836 129.058C214.836 128.391 214.902 127.674 215.036 126.908L216.236 120.258C216.336 119.658 216.386 119.141 216.386 118.708ZM240.268 134.758C233.335 134.758 229.868 132.358 229.868 127.558C229.868 126.891 229.935 126.174 230.068 125.408L231.118 119.208C231.652 116.008 233.102 113.558 235.468 111.858C237.868 110.158 240.902 109.291 244.568 109.258C251.668 109.258 255.218 111.724 255.218 116.658C255.218 117.724 255.085 118.691 254.818 119.558C254.585 120.391 254.335 120.958 254.068 121.258L253.668 121.758H245.168C246.002 121.024 246.418 120.158 246.418 119.158C246.418 117.358 245.518 116.458 243.718 116.458C242.652 116.458 241.735 116.774 240.968 117.408C240.202 118.041 239.702 119.008 239.468 120.308L238.818 123.958C238.752 124.291 238.718 124.608 238.718 124.908C238.718 126.674 239.818 127.558 242.018 127.558C242.752 127.558 243.402 127.324 243.968 126.858C244.568 126.391 244.918 125.874 245.018 125.308L253.318 125.408C252.218 131.641 247.868 134.758 240.268 134.758ZM267.759 134.758C260.825 134.758 257.359 132.358 257.359 127.558C257.359 126.891 257.425 126.174 257.559 125.408L258.609 119.208C259.175 116.008 260.642 113.558 263.009 111.858C265.409 110.124 268.575 109.258 272.509 109.258C279.209 109.258 282.559 111.791 282.559 116.858C282.559 117.591 282.492 118.391 282.359 119.258L281.759 122.808H266.509L266.309 123.958C266.242 124.358 266.209 124.724 266.209 125.058C266.209 126.891 267.292 127.808 269.459 127.808C270.259 127.808 270.942 127.558 271.509 127.058C272.075 126.558 272.409 125.974 272.509 125.308L280.809 125.408C279.709 131.641 275.359 134.758 267.759 134.758ZM273.759 119.758C273.892 119.191 273.959 118.674 273.959 118.208C273.959 117.708 273.742 117.208 273.309 116.708C272.875 116.208 272.175 115.958 271.209 115.958C270.275 115.958 269.409 116.274 268.609 116.908C267.842 117.541 267.309 118.491 267.009 119.758H273.759ZM314.608 109.358C318.008 109.358 320.358 110.258 321.658 112.058C322.592 113.291 323.058 114.858 323.058 116.758C323.058 117.524 322.975 118.341 322.808 119.208L321.808 125.058C321.242 128.224 320.025 130.641 318.158 132.308C316.292 133.941 313.958 134.758 311.158 134.758C308.358 134.758 306.408 134.008 305.308 132.508L302.608 147.958H294.108L300.808 110.008H308.508L308.258 111.358C309.825 110.024 311.942 109.358 314.608 109.358ZM309.408 127.558C310.342 127.558 311.208 127.258 312.008 126.658C312.808 126.058 313.308 125.158 313.508 123.958L314.158 120.208C314.225 119.874 314.258 119.458 314.258 118.958C314.258 118.458 314.042 117.924 313.608 117.358C313.175 116.791 312.425 116.508 311.358 116.508C309.625 116.508 308.492 116.924 307.958 117.758L306.458 126.158C306.925 127.091 307.908 127.558 309.408 127.558ZM349.517 126.358C349.517 127.224 349.95 127.658 350.817 127.658C351.717 127.658 352.467 127.491 353.067 127.158L352.817 132.808C351.217 134.108 349.417 134.758 347.417 134.758C343.75 134.758 341.717 133.424 341.317 130.758C339.65 133.424 337.2 134.758 333.967 134.758C328.5 134.758 325.767 132.408 325.767 127.708C325.767 126.908 325.85 126.024 326.017 125.058L327.067 119.208C327.6 116.208 328.817 113.824 330.717 112.058C332.65 110.258 335.15 109.358 338.217 109.358C341.317 109.358 343.417 110.074 344.517 111.508L344.767 110.008H352.367L349.567 125.758C349.533 125.958 349.517 126.158 349.517 126.358ZM334.717 123.958C334.65 124.258 334.617 124.674 334.617 125.208C334.617 125.741 334.867 126.274 335.367 126.808C335.867 127.308 336.7 127.558 337.867 127.558C339.067 127.558 340.1 127.091 340.967 126.158L342.467 117.758C342.1 116.924 341.233 116.508 339.867 116.508C337.3 116.508 335.8 117.741 335.367 120.208L334.717 123.958ZM366.245 134.758C359.312 134.758 355.845 132.358 355.845 127.558C355.845 126.891 355.912 126.174 356.045 125.408L357.095 119.208C357.628 116.008 359.078 113.558 361.445 111.858C363.845 110.158 366.878 109.291 370.545 109.258C377.645 109.258 381.195 111.724 381.195 116.658C381.195 117.724 381.062 118.691 380.795 119.558C380.562 120.391 380.312 120.958 380.045 121.258L379.645 121.758H371.145C371.978 121.024 372.395 120.158 372.395 119.158C372.395 117.358 371.495 116.458 369.695 116.458C368.628 116.458 367.712 116.774 366.945 117.408C366.178 118.041 365.678 119.008 365.445 120.308L364.795 123.958C364.728 124.291 364.695 124.608 364.695 124.908C364.695 126.674 365.795 127.558 367.995 127.558C368.728 127.558 369.378 127.324 369.945 126.858C370.545 126.391 370.895 125.874 370.995 125.308L379.295 125.408C378.195 131.641 373.845 134.758 366.245 134.758ZM407.585 127.658C408.352 127.658 409.035 127.491 409.635 127.158L409.385 132.808C407.818 134.108 405.902 134.758 403.635 134.758C401.368 134.758 399.685 134.158 398.585 132.958C397.518 131.758 396.685 129.741 396.085 126.908L395.935 126.208C395.235 126.308 394.185 126.391 392.785 126.458L391.435 134.058H382.935L389.635 96.1077H398.135L395.235 112.558C397.202 110.391 399.868 109.308 403.235 109.308C405.502 109.308 407.168 109.874 408.235 111.008C409.335 112.108 409.885 113.591 409.885 115.458C409.885 119.058 408.002 121.874 404.235 123.908L404.785 125.758C405.152 127.024 406.085 127.658 407.585 127.658ZM398.935 116.108C397.135 116.108 395.535 116.958 394.135 118.658L393.585 121.958C398.518 121.758 400.985 120.441 400.985 118.008C400.985 117.441 400.802 116.991 400.435 116.658C400.102 116.291 399.602 116.108 398.935 116.108ZM436.821 126.358C436.821 127.224 437.255 127.658 438.121 127.658C439.021 127.658 439.771 127.491 440.371 127.158L440.121 132.808C438.521 134.108 436.721 134.758 434.721 134.758C431.055 134.758 429.021 133.424 428.621 130.758C426.955 133.424 424.505 134.758 421.271 134.758C415.805 134.758 413.071 132.408 413.071 127.708C413.071 126.908 413.155 126.024 413.321 125.058L414.371 119.208C414.905 116.208 416.121 113.824 418.021 112.058C419.955 110.258 422.455 109.358 425.521 109.358C428.621 109.358 430.721 110.074 431.821 111.508L432.071 110.008H439.671L436.871 125.758C436.838 125.958 436.821 126.158 436.821 126.358ZM422.021 123.958C421.955 124.258 421.921 124.674 421.921 125.208C421.921 125.741 422.171 126.274 422.671 126.808C423.171 127.308 424.005 127.558 425.171 127.558C426.371 127.558 427.405 127.091 428.271 126.158L429.771 117.758C429.405 116.924 428.538 116.508 427.171 116.508C424.605 116.508 423.105 117.741 422.671 120.208L422.021 123.958ZM465.45 134.858C464.716 139.091 463.033 142.441 460.4 144.908C457.8 147.374 454.816 148.608 451.45 148.608C448.083 148.608 445.65 147.991 444.15 146.758C442.683 145.524 441.95 143.908 441.95 141.908C441.95 138.974 443.816 136.424 447.55 134.258C444.716 133.358 443.3 131.208 443.3 127.808C443.3 126.974 443.383 126.058 443.55 125.058L444.55 119.208C445.083 116.208 446.316 113.824 448.25 112.058C450.183 110.258 452.683 109.358 455.75 109.358C458.85 109.358 460.966 110.108 462.1 111.608L462.4 110.008H469.85L465.45 134.858ZM452.25 123.958C452.183 124.258 452.15 124.674 452.15 125.208C452.15 125.741 452.4 126.274 452.9 126.808C453.4 127.308 454.233 127.558 455.4 127.558C456.6 127.558 457.633 127.091 458.5 126.158L460 117.758C459.533 116.924 458.65 116.508 457.35 116.508C456.05 116.508 455.033 116.841 454.3 117.508C453.566 118.174 453.1 119.074 452.9 120.208L452.25 123.958ZM452.6 141.458C454.766 141.458 456.183 139.491 456.85 135.558L457.35 132.658C452.716 134.824 450.4 137.008 450.4 139.208C450.4 139.874 450.583 140.408 450.95 140.808C451.35 141.241 451.9 141.458 452.6 141.458ZM481.382 134.758C474.448 134.758 470.982 132.358 470.982 127.558C470.982 126.891 471.048 126.174 471.182 125.408L472.232 119.208C472.798 116.008 474.265 113.558 476.632 111.858C479.032 110.124 482.198 109.258 486.132 109.258C492.832 109.258 496.182 111.791 496.182 116.858C496.182 117.591 496.115 118.391 495.982 119.258L495.382 122.808H480.132L479.932 123.958C479.865 124.358 479.832 124.724 479.832 125.058C479.832 126.891 480.915 127.808 483.082 127.808C483.882 127.808 484.565 127.558 485.132 127.058C485.698 126.558 486.032 125.974 486.132 125.308L494.432 125.408C493.332 131.641 488.982 134.758 481.382 134.758ZM487.382 119.758C487.515 119.191 487.582 118.674 487.582 118.208C487.582 117.708 487.365 117.208 486.932 116.708C486.498 116.208 485.798 115.958 484.832 115.958C483.898 115.958 483.032 116.274 482.232 116.908C481.465 117.541 480.932 118.491 480.632 119.758H487.382Z" fill="white"/>
</svg>
